<svg xmlns="http://www.w3.org/2000/svg" width="45" height="60" viewBox="0 0 45 60">
  <g id="Group_3610" data-name="Group 3610" transform="translate(-645 -733)">
    <path id="Subtraction_3" data-name="Subtraction 3" d="M-2176-540h-35a5.006,5.006,0,0,1-5-5v-44a5.005,5.005,0,0,1,5-5h4.019c-.012.155-.019.322-.019.5a6.507,6.507,0,0,0,6.5,6.5h14a6.507,6.507,0,0,0,6.5-6.5c0-.166-.006-.335-.019-.5H-2176a5.006,5.006,0,0,1,5,5v44A5.006,5.006,0,0,1-2176-540Zm-17.5-35a11.513,11.513,0,0,0-11.5,11.5,11.513,11.513,0,0,0,11.5,11.5,11.512,11.512,0,0,0,11.5-11.5A11.513,11.513,0,0,0-2193.5-575Z" transform="translate(2861 1333)" fill="#fff"/>
    <rect id="Rectangle_83" data-name="Rectangle 83" width="21" height="10" rx="5" transform="translate(657 733)" fill="#fff"/>
    <path id="Subtraction_4" data-name="Subtraction 4" d="M-2207.5-577a8.51,8.51,0,0,1-8.5-8.5,8.509,8.509,0,0,1,8.5-8.5,8.51,8.51,0,0,1,8.5,8.5A8.51,8.51,0,0,1-2207.5-577Zm-4.339-9a1,1,0,0,0-.731.318,1,1,0,0,0,.05,1.414l2.925,2.728a1,1,0,0,0,.682.268l.065,0h.059a.993.993,0,0,0,.707-.293l5.657-5.657a.99.99,0,0,0,.293-.706.993.993,0,0,0-.293-.708.994.994,0,0,0-.707-.293.994.994,0,0,0-.708.293l-5.034,5.035-2.282-2.129A1,1,0,0,0-2211.839-586Z" transform="translate(2875 1355)" fill="#fff"/>
  </g>
</svg>
